<?xml version="1.0" encoding="UTF-8" standalone="no"?>
<!DOCTYPE svg PUBLIC "-//W3C//DTD SVG 1.1//EN" "http://www.w3.org/Graphics/SVG/1.1/DTD/svg11.dtd">
<svg width="100%" height="100%" viewBox="0 0 24 24" version="1.1" xmlns="http://www.w3.org/2000/svg" xmlns:xlink="http://www.w3.org/1999/xlink" xml:space="preserve" xmlns:serif="http://www.serif.com/" style="fill-rule:evenodd;clip-rule:evenodd;stroke-linecap:round;stroke-linejoin:round;">
    <rect id="donation-amount-50" x="0" y="0" width="24" height="24" style="fill:none;"/>
    <path d="M2,16L2,19C2,20.104 2.896,21 4,21L20,21C21.104,21 22,20.104 22,19L22,16" style="fill:none;stroke:black;stroke-width:2px;"/>
    <path d="M2,13L2,16C2,17.104 2.896,18 4,18L20,18C21.104,18 22,17.104 22,16L22,13" style="fill:none;stroke:black;stroke-width:2px;"/>
    <path d="M22,5C22,3.896 21.104,3 20,3L4,3C2.896,3 2,3.896 2,5L2,13C2,14.104 2.896,15 4,15L20,15C21.104,15 22,14.104 22,13L22,5Z" style="fill:none;stroke:black;stroke-width:2px;"/>
    <circle cx="12" cy="9" r="2" style="fill:none;stroke:black;stroke-width:2px;"/>
    <path d="M6,9L6.01,9M18,9L18.01,9" style="fill:none;fill-rule:nonzero;stroke:black;stroke-width:2px;"/>
</svg>
