<?xml version="1.0" encoding="UTF-8" standalone="no"?>
<!DOCTYPE svg PUBLIC "-//W3C//DTD SVG 1.1//EN" "http://www.w3.org/Graphics/SVG/1.1/DTD/svg11.dtd">
<svg width="100%" height="100%" viewBox="0 0 24 24" version="1.1" xmlns="http://www.w3.org/2000/svg" xmlns:xlink="http://www.w3.org/1999/xlink" xml:space="preserve" xmlns:serif="http://www.serif.com/" style="fill-rule:evenodd;clip-rule:evenodd;stroke-linejoin:round;">
    <rect id="donation-amount-10" x="0" y="0" width="24" height="24" style="fill:none;"/>
    <g id="Stack">
        <path d="M9.877,20.356C9.287,20.45 8.657,20.5 8,20.5C4.667,20.5 2,19.2 2,17.5L2,5.5" style="fill:none;fill-rule:nonzero;stroke:black;stroke-width:1.67px;"/>
        <path d="M6.548,16.415C3.925,16.1 2,14.944 2,13.5" style="fill:none;fill-rule:nonzero;stroke:black;stroke-width:1.67px;"/>
        <path d="M6.082,12.349C3.7,11.96 2,10.857 2,9.5" style="fill:none;fill-rule:nonzero;stroke:black;stroke-width:1.67px;"/>
        <path d="M7.759,8.498C4.559,8.434 2,7.115 2,5.5C2,3.844 4.689,2.5 8,2.5C11.311,2.5 14,3.844 14,5.5" style="fill:none;stroke:black;stroke-width:1.67px;"/>
    </g>
    <g id="Coin">
        <circle cx="14" cy="13.5" r="8" style="fill:none;stroke:black;stroke-width:1.6px;stroke-linecap:round;"/>
        <path d="M17,10.794L12.5,10.794C11.677,10.794 11,11.472 11,12.294C11,13.117 11.677,13.794 12.5,13.794L15.5,13.794C16.323,13.794 17,14.472 17,15.294C17,16.117 16.323,16.794 15.5,16.794L11,16.794" style="fill:none;fill-rule:nonzero;stroke:black;stroke-width:1.5px;stroke-linecap:round;"/>
        <path d="M14,18.294L14,9.294" style="fill:none;fill-rule:nonzero;stroke:black;stroke-width:1.5px;stroke-linecap:round;"/>
    </g>
</svg>
