<!-- 
Credit: https://freesvg.org/heart-outline-symbol 
License: Public Domain 
-->
<svg xmlns="http://www.w3.org/2000/svg" viewBox="0 0 90 90" width="90" height="90">
  <path d="M 65.25 8.9 L 65.2 8.9 Q 61.95 5.7 57.45 5.7 52.9 5.7 49.65 8.9 L 45 13.6 40.4 8.9 40.35 8.9 Q 38.2 6.75 35.35 6.05 34.05 5.7 32.6 5.7 28.05 5.7 24.8 8.9 21.6 12.15 21.6 16.65 21.6 18.5 22.15 20.2 L 22.15 20.15 Q 22.85 22.55 24.8 24.45 L 44.25 43.65 44.25 84.25 Q 44.25 84.65 44.55 84.95 44.85 85.25 45.25 85.25 45.65 85.25 45.95 84.95 46.25 84.65 46.25 84.25 L 46.25 43.6 65.2 24.4 Q 68.4 21.2 68.4 16.65 68.4 12.15 65.25 8.9 Z" fill="none" stroke="#E44642" stroke-width="1.4"/>
  <path d="M 63.8 10.3 L 63.8 10.35 Q 66.4 12.95 66.4 16.65 66.4 20.4 63.8 23 L 45.25 41.8 26.2 23 Q 24.65 21.45 24.05 19.55 23.6 18.2 23.6 16.65 23.6 12.95 26.2 10.35 L 26.25 10.3 Q 28.9 7.7 32.6 7.7 33.75 7.7 34.85 8 37.2 8.55 38.95 10.3 L 44.3 15.7 Q 44.5 15.9 44.75 16 45 16.05 45.25 16 45.5 15.9 45.75 15.7 L 51.1 10.3 Q 53.75 7.7 57.45 7.7 61.15 7.7 63.8 10.3 Z" fill="none" stroke="#E44642" stroke-width="0.8" opacity="0.6"/>
</svg>
