<svg xmlns="http://www.w3.org/2000/svg" xml:space="preserve" width="1006.675" height="1006.675"><g transform="rotate(-45 584.436 -44.091)"><rect width="50.24" height="927.85" x="114.88" y="24.88" rx="0" ry="27.423" style="fill:#fff;fill-opacity:1;stroke:#fff;stroke-width:49.7602;stroke-dasharray:none"/><path d="M47.332 47.332h185.336v255.336H47.332z" style="fill:#fff;fill-opacity:1;stroke:#fff;stroke-width:94.6637;stroke-dasharray:none"/></g><g class="UnoptimicedTransforms"><path d="M921.83 147.048c.822 0 1.484 18.522 1.484 41.53V457.47c0 23.008-.662 41.53-1.484 41.53-.821 0-1.483-18.522-1.483-41.53V188.578c0-23.008.662-41.53 1.483-41.53zm-390.41 0c-.821 0-1.483 18.522-1.483 41.53V457.47c0 23.008.662 41.53 1.483 41.53.822 0 1.483-18.522 1.483-41.53V188.578c0-23.008-.661-41.53-1.483-41.53zM1039.534 95.658h2.761c23.007 0 41.53 18.522 41.53 41.53V508.86c0 23.008-18.522 41.53-41.53 41.53h-2.76c-23.008 0-41.53-18.522-41.53-41.53V137.187c0-23.007 18.522-41.53 41.53-41.53zm-625.818 0h-2.76c-23.008 0-41.53 18.522-41.53 41.53V508.86c0 23.008 18.522 41.53 41.53 41.53h2.76c23.008 0 41.53-18.522 41.53-41.53V137.187c0-23.007-18.522-41.53-41.53-41.53z" style="fill:#fff;fill-opacity:1;stroke:#fff;stroke-width:60;stroke-dasharray:none" transform="rotate(-45 700.51 737.443)"/></g></svg>