<?xml version="1.0" encoding="utf-8"?>
<svg width="1792" height="1792" viewBox="0 0 1792 1792" xmlns="http://www.w3.org/2000/svg"><path d="M 1664 416 L 1664 1376 C 1664 1455.333 1635.834 1523.166 1579.5 1579.5 C 1523.167 1635.833 1455.334 1664 1376 1664 L 416 1664 C 336.667 1664 268.834 1635.833 212.5 1579.5 C 156.167 1523.166 128 1455.333 128 1376 L 128 416 C 128 336.666 156.167 268.833 212.5 212.5 C 268.834 156.166 336.667 128 416 128 L 1376 128 C 1455.334 128 1523.167 156.166 1579.5 212.5 C 1635.834 268.833 1664 336.666 1664 416 Z M 895.999 398.772 C 790.555 398.772 692.978 418.482 603.268 457.904 C 513.558 497.326 442.756 550.99 390.861 618.898 C 338.967 686.807 313.021 760.758 313.021 840.751 C 313.021 909.236 332.62 973.691 371.815 1034.119 C 411.012 1094.545 464.838 1145.477 533.294 1186.912 C 527.772 1200.725 522.114 1213.385 516.318 1224.895 C 510.522 1236.404 503.621 1247.483 495.616 1258.13 C 487.611 1268.777 481.4 1277.121 476.984 1283.164 C 472.568 1289.206 465.39 1297.695 455.453 1308.63 C 445.517 1319.564 439.167 1326.757 436.407 1330.21 L 433.095 1334.095 L 429.368 1338.411 L 426.056 1342.728 L 423.157 1347.475 L 421.087 1351.792 C 420.259 1353.518 419.707 1355.244 419.43 1356.971 C 419.155 1358.697 419.017 1360.568 419.017 1362.583 C 419.017 1364.596 419.293 1366.467 419.844 1368.193 C 420.948 1375.675 424.124 1381.718 429.368 1386.322 C 434.613 1390.925 440.272 1393.227 446.344 1393.227 L 448.829 1393.227 C 476.431 1389.199 500.17 1384.594 520.045 1379.415 C 605.062 1356.394 681.799 1319.564 750.254 1268.92 C 799.941 1278.129 848.523 1282.733 895.999 1282.733 C 1001.443 1282.733 1099.021 1263.021 1188.731 1223.6 C 1278.441 1184.178 1349.242 1130.514 1401.136 1062.605 C 1453.03 994.697 1478.978 920.747 1478.978 840.751 C 1478.978 760.758 1453.03 686.807 1401.136 618.898 C 1349.242 550.99 1278.441 497.326 1188.731 457.904 C 1099.021 418.482 1001.443 398.772 895.999 398.772 Z" style="fill: #fff"/></svg>