<svg xmlns="http://www.w3.org/2000/svg" viewBox="0 0 126 18" width="126" height="18">
  <!-- Heart 0: White outline -->
  <g transform="translate(0,0.5) scale(0.38) translate(-21,-5)">
    <path d="M 65.25 8.9 L 65.2 8.9 Q 61.95 5.7 57.45 5.7 52.9 5.7 49.65 8.9 L 45 13.6 40.4 8.9 40.35 8.9 Q 38.2 6.75 35.35 6.05 34.05 5.7 32.6 5.7 28.05 5.7 24.8 8.9 21.6 12.15 21.6 16.65 21.6 18.5 22.15 20.2 L 22.15 20.15 Q 22.85 22.55 24.8 24.45 L 44.25 43.65 46.25 43.6 65.2 24.4 Q 68.4 21.2 68.4 16.65 68.4 12.15 65.25 8.9 Z" fill="none" stroke="#FFFFFF" stroke-width="2.5"/>
    <path d="M 63.8 10.3 L 63.8 10.35 Q 66.4 12.95 66.4 16.65 66.4 20.4 63.8 23 L 45.25 41.8 26.2 23 Q 24.65 21.45 24.05 19.55 23.6 18.2 23.6 16.65 23.6 12.95 26.2 10.35 L 26.25 10.3 Q 28.9 7.7 32.6 7.7 33.75 7.7 34.85 8 37.2 8.55 38.95 10.3 L 44.3 15.7 Q 44.5 15.9 44.75 16 45 16.05 45.25 16 45.5 15.9 45.75 15.7 L 51.1 10.3 Q 53.75 7.7 57.45 7.7 61.15 7.7 63.8 10.3 Z" fill="none" stroke="rgba(255,255,255,0.3)" stroke-width="1.5"/>
  </g>

  <!-- Heart 1: #E44642 Red -->
  <g transform="translate(18,0.5) scale(0.38) translate(-21,-5)">
    <path d="M 65.25 8.9 L 65.2 8.9 Q 61.95 5.7 57.45 5.7 52.9 5.7 49.65 8.9 L 45 13.6 40.4 8.9 40.35 8.9 Q 38.2 6.75 35.35 6.05 34.05 5.7 32.6 5.7 28.05 5.7 24.8 8.9 21.6 12.15 21.6 16.65 21.6 18.5 22.15 20.2 L 22.15 20.15 Q 22.85 22.55 24.8 24.45 L 44.25 43.65 46.25 43.6 65.2 24.4 Q 68.4 21.2 68.4 16.65 68.4 12.15 65.25 8.9 Z" fill="#E44642"/>
    <path d="M 63.8 10.3 L 63.8 10.35 Q 66.4 12.95 66.4 16.65 66.4 20.4 63.8 23 L 45.25 41.8 26.2 23 Q 24.65 21.45 24.05 19.55 23.6 18.2 23.6 16.65 23.6 12.95 26.2 10.35 L 26.25 10.3 Q 28.9 7.7 32.6 7.7 33.75 7.7 34.85 8 37.2 8.55 38.95 10.3 L 44.3 15.7 Q 44.5 15.9 44.75 16 45 16.05 45.25 16 45.5 15.9 45.75 15.7 L 51.1 10.3 Q 53.75 7.7 57.45 7.7 61.15 7.7 63.8 10.3 Z" fill="#E44642"/>
    <path d="M 32.35 11.05 Q 32.6 11.05 32.85 11.15 33.25 11.2 33.6 11 33.95 10.8 34.1 10.4 34.15 10 33.95 9.65 33.75 9.3 33.35 9.2 32.8 9.05 32.35 9.05 29.25 9.05 27.2 11.2 25.1 13.35 25.1 16.35 25.1 17.1 25.25 17.75 25.3 18.15 25.65 18.4 25.95 18.6 26.4 18.55 26.8 18.45 27.05 18.15 27.25 17.8 27.2 17.4 27.1 16.9 27.1 16.35 27.1 14.15 28.65 12.6 30.15 11.05 32.35 11.05 Z" fill="rgba(255,255,255,0.3)"/>
  </g>

  <!-- Heart 2: #E8327A Hot Pink -->
  <g transform="translate(36,0.5) scale(0.38) translate(-21,-5)">
    <path d="M 65.25 8.9 L 65.2 8.9 Q 61.95 5.7 57.45 5.7 52.9 5.7 49.65 8.9 L 45 13.6 40.4 8.9 40.35 8.9 Q 38.2 6.75 35.35 6.05 34.05 5.7 32.6 5.7 28.05 5.7 24.8 8.9 21.6 12.15 21.6 16.65 21.6 18.5 22.15 20.2 L 22.15 20.15 Q 22.85 22.55 24.8 24.45 L 44.25 43.65 46.25 43.6 65.2 24.4 Q 68.4 21.2 68.4 16.65 68.4 12.15 65.25 8.9 Z" fill="#E8327A"/>
    <path d="M 63.8 10.3 L 63.8 10.35 Q 66.4 12.95 66.4 16.65 66.4 20.4 63.8 23 L 45.25 41.8 26.2 23 Q 24.65 21.45 24.05 19.55 23.6 18.2 23.6 16.65 23.6 12.95 26.2 10.35 L 26.25 10.3 Q 28.9 7.7 32.6 7.7 33.75 7.7 34.85 8 37.2 8.55 38.95 10.3 L 44.3 15.7 Q 44.5 15.9 44.75 16 45 16.05 45.25 16 45.5 15.9 45.75 15.7 L 51.1 10.3 Q 53.75 7.7 57.45 7.7 61.15 7.7 63.8 10.3 Z" fill="#E8327A"/>
    <path d="M 32.35 11.05 Q 32.6 11.05 32.85 11.15 33.25 11.2 33.6 11 33.95 10.8 34.1 10.4 34.15 10 33.95 9.65 33.75 9.3 33.35 9.2 32.8 9.05 32.35 9.05 29.25 9.05 27.2 11.2 25.1 13.35 25.1 16.35 25.1 17.1 25.25 17.75 25.3 18.15 25.65 18.4 25.95 18.6 26.4 18.55 26.8 18.45 27.05 18.15 27.25 17.8 27.2 17.4 27.1 16.9 27.1 16.35 27.1 14.15 28.65 12.6 30.15 11.05 32.35 11.05 Z" fill="rgba(255,255,255,0.3)"/>
  </g>

  <!-- Heart 3: #C23AC3 Magenta -->
  <g transform="translate(54,0.5) scale(0.38) translate(-21,-5)">
    <path d="M 65.25 8.9 L 65.2 8.9 Q 61.95 5.7 57.45 5.7 52.9 5.7 49.65 8.9 L 45 13.6 40.4 8.9 40.35 8.9 Q 38.2 6.75 35.35 6.05 34.05 5.7 32.6 5.7 28.05 5.7 24.8 8.9 21.6 12.15 21.6 16.65 21.6 18.5 22.15 20.2 L 22.15 20.15 Q 22.85 22.55 24.8 24.45 L 44.25 43.65 46.25 43.6 65.2 24.4 Q 68.4 21.2 68.4 16.65 68.4 12.15 65.25 8.9 Z" fill="#C23AC3"/>
    <path d="M 63.8 10.3 L 63.8 10.35 Q 66.4 12.95 66.4 16.65 66.4 20.4 63.8 23 L 45.25 41.8 26.2 23 Q 24.65 21.45 24.05 19.55 23.6 18.2 23.6 16.65 23.6 12.95 26.2 10.35 L 26.25 10.3 Q 28.9 7.7 32.6 7.7 33.75 7.7 34.85 8 37.2 8.55 38.95 10.3 L 44.3 15.7 Q 44.5 15.9 44.75 16 45 16.05 45.25 16 45.5 15.9 45.75 15.7 L 51.1 10.3 Q 53.75 7.7 57.45 7.7 61.15 7.7 63.8 10.3 Z" fill="#C23AC3"/>
    <path d="M 32.35 11.05 Q 32.6 11.05 32.85 11.15 33.25 11.2 33.6 11 33.95 10.8 34.1 10.4 34.15 10 33.95 9.65 33.75 9.3 33.35 9.2 32.8 9.05 32.35 9.05 29.25 9.05 27.2 11.2 25.1 13.35 25.1 16.35 25.1 17.1 25.25 17.75 25.3 18.15 25.65 18.4 25.95 18.6 26.4 18.55 26.8 18.45 27.05 18.15 27.25 17.8 27.2 17.4 27.1 16.9 27.1 16.35 27.1 14.15 28.65 12.6 30.15 11.05 32.35 11.05 Z" fill="rgba(255,255,255,0.3)"/>
  </g>

  <!-- Heart 4: #8142E4 Purple -->
  <g transform="translate(72,0.5) scale(0.38) translate(-21,-5)">
    <path d="M 65.25 8.9 L 65.2 8.9 Q 61.95 5.7 57.45 5.7 52.9 5.7 49.65 8.9 L 45 13.6 40.4 8.9 40.35 8.9 Q 38.2 6.75 35.35 6.05 34.05 5.7 32.6 5.7 28.05 5.7 24.8 8.9 21.6 12.15 21.6 16.65 21.6 18.5 22.15 20.2 L 22.15 20.15 Q 22.85 22.55 24.8 24.45 L 44.25 43.65 46.25 43.6 65.2 24.4 Q 68.4 21.2 68.4 16.65 68.4 12.15 65.25 8.9 Z" fill="#8142E4"/>
    <path d="M 63.8 10.3 L 63.8 10.35 Q 66.4 12.95 66.4 16.65 66.4 20.4 63.8 23 L 45.25 41.8 26.2 23 Q 24.65 21.45 24.05 19.55 23.6 18.2 23.6 16.65 23.6 12.95 26.2 10.35 L 26.25 10.3 Q 28.9 7.7 32.6 7.7 33.75 7.7 34.85 8 37.2 8.55 38.95 10.3 L 44.3 15.7 Q 44.5 15.9 44.75 16 45 16.05 45.25 16 45.5 15.9 45.75 15.7 L 51.1 10.3 Q 53.75 7.7 57.45 7.7 61.15 7.7 63.8 10.3 Z" fill="#8142E4"/>
    <path d="M 32.35 11.05 Q 32.6 11.05 32.85 11.15 33.25 11.2 33.6 11 33.95 10.8 34.1 10.4 34.15 10 33.95 9.65 33.75 9.3 33.35 9.2 32.8 9.05 32.35 9.05 29.25 9.05 27.2 11.2 25.1 13.35 25.1 16.35 25.1 17.1 25.25 17.75 25.3 18.15 25.65 18.4 25.95 18.6 26.4 18.55 26.8 18.45 27.05 18.15 27.25 17.8 27.2 17.4 27.1 16.9 27.1 16.35 27.1 14.15 28.65 12.6 30.15 11.05 32.35 11.05 Z" fill="rgba(255,255,255,0.3)"/>
  </g>

  <!-- Heart 5: #4B6AE8 Royal Blue -->
  <g transform="translate(90,0.5) scale(0.38) translate(-21,-5)">
    <path d="M 65.25 8.9 L 65.2 8.9 Q 61.95 5.7 57.45 5.7 52.9 5.7 49.65 8.9 L 45 13.6 40.4 8.9 40.35 8.9 Q 38.2 6.75 35.35 6.05 34.05 5.7 32.6 5.7 28.05 5.7 24.8 8.9 21.6 12.15 21.6 16.65 21.6 18.5 22.15 20.2 L 22.15 20.15 Q 22.85 22.55 24.8 24.45 L 44.25 43.65 46.25 43.6 65.2 24.4 Q 68.4 21.2 68.4 16.65 68.4 12.15 65.25 8.9 Z" fill="#4B6AE8"/>
    <path d="M 63.8 10.3 L 63.8 10.35 Q 66.4 12.95 66.4 16.65 66.4 20.4 63.8 23 L 45.25 41.8 26.2 23 Q 24.65 21.45 24.05 19.55 23.6 18.2 23.6 16.65 23.6 12.95 26.2 10.35 L 26.25 10.3 Q 28.9 7.7 32.6 7.7 33.75 7.7 34.85 8 37.2 8.55 38.95 10.3 L 44.3 15.7 Q 44.5 15.9 44.75 16 45 16.05 45.25 16 45.5 15.9 45.75 15.7 L 51.1 10.3 Q 53.75 7.7 57.45 7.7 61.15 7.7 63.8 10.3 Z" fill="#4B6AE8"/>
    <path d="M 32.35 11.05 Q 32.6 11.05 32.85 11.15 33.25 11.2 33.6 11 33.95 10.8 34.1 10.4 34.15 10 33.95 9.65 33.75 9.3 33.35 9.2 32.8 9.05 32.35 9.05 29.25 9.05 27.2 11.2 25.1 13.35 25.1 16.35 25.1 17.1 25.25 17.75 25.3 18.15 25.65 18.4 25.95 18.6 26.4 18.55 26.8 18.45 27.05 18.15 27.25 17.8 27.2 17.4 27.1 16.9 27.1 16.35 27.1 14.15 28.65 12.6 30.15 11.05 32.35 11.05 Z" fill="rgba(255,255,255,0.3)"/>
  </g>

  <!-- Heart 6: #59AEEA Sky Blue -->
  <g transform="translate(108,0.5) scale(0.38) translate(-21,-5)">
    <path d="M 65.25 8.9 L 65.2 8.9 Q 61.95 5.7 57.45 5.7 52.9 5.7 49.65 8.9 L 45 13.6 40.4 8.9 40.35 8.9 Q 38.2 6.75 35.35 6.05 34.05 5.7 32.6 5.7 28.05 5.7 24.8 8.9 21.6 12.15 21.6 16.65 21.6 18.5 22.15 20.2 L 22.15 20.15 Q 22.85 22.55 24.8 24.45 L 44.25 43.65 46.25 43.6 65.2 24.4 Q 68.4 21.2 68.4 16.65 68.4 12.15 65.25 8.9 Z" fill="#59AEEA"/>
    <path d="M 63.8 10.3 L 63.8 10.35 Q 66.4 12.95 66.4 16.65 66.4 20.4 63.8 23 L 45.25 41.8 26.2 23 Q 24.65 21.45 24.05 19.55 23.6 18.2 23.6 16.65 23.6 12.95 26.2 10.35 L 26.25 10.3 Q 28.9 7.7 32.6 7.7 33.75 7.7 34.85 8 37.2 8.55 38.95 10.3 L 44.3 15.7 Q 44.5 15.9 44.75 16 45 16.05 45.25 16 45.5 15.9 45.75 15.7 L 51.1 10.3 Q 53.75 7.7 57.45 7.7 61.15 7.7 63.8 10.3 Z" fill="#59AEEA"/>
    <path d="M 32.35 11.05 Q 32.6 11.05 32.85 11.15 33.25 11.2 33.6 11 33.95 10.8 34.1 10.4 34.15 10 33.95 9.65 33.75 9.3 33.35 9.2 32.8 9.05 32.35 9.05 29.25 9.05 27.2 11.2 25.1 13.35 25.1 16.35 25.1 17.1 25.25 17.75 25.3 18.15 25.65 18.4 25.95 18.6 26.4 18.55 26.8 18.45 27.05 18.15 27.25 17.8 27.2 17.4 27.1 16.9 27.1 16.35 27.1 14.15 28.65 12.6 30.15 11.05 32.35 11.05 Z" fill="rgba(255,255,255,0.3)"/>
  </g>
</svg>
