<svg xmlns="http://www.w3.org/2000/svg" xml:space="preserve" width="1604.275" height="1308.729"><path d="M49.428 1245.826 1554.847 62.904" style="display:inline;fill:none;stroke:#fff;stroke-width:160;stroke-dasharray:none"/><path fill="#fff" d="M802.138 206.365c102 0 197.333 17.333 286 52 88.666 34.666 159.166 81.666 211.5 141 52.333 59.333 78.5 123 78.5 191 0 54.666-17.667 107.333-53 158-35.334 50.666-85 94.666-149 132l-97 56 35 84c-22.667-13.334-43.334-26.334-62-39l-44-31-53 10c-52 9.333-103 14-153 14-102 0-197.334-17.334-286-52-88.667-34.667-159.167-81.667-211.5-141-52.334-59.334-78.5-123-78.5-191s26.166-131.667 78.5-191c52.333-59.334 122.833-106.334 211.5-141 88.666-34.667 184-52 286-52zm0-128c-127.334 0-245.167 22.833-353.5 68.5-108.334 45.666-193.834 107.833-256.5 186.5-62.667 78.666-94 164.333-94 257 0 92.666 31.333 178.333 94 257 62.666 78.666 148.166 140.833 256.5 186.5 108.333 45.666 226.166 68.5 353.5 68.5 57.333 0 116-5.334 176-16 82.666 58.666 175.333 101.333 278 128 24 6 52.666 11.333 86 16h3c7.333 0 14.166-2.667 20.5-8 6.333-5.334 10.166-12.334 11.5-21 .666-2 1-4.167 1-6.5 0-2.334-.167-4.5-.5-6.5-.334-2-1-4-2-6l-2.5-5-3.5-5.5-4-5-4.5-5-4-4.5c-3.334-4-11-12.334-23-25-12-12.667-20.667-22.5-26-29.5-5.334-7-12.834-16.667-22.5-29-9.667-12.334-18-25.167-25-38.5-7-13.334-13.834-28-20.5-44 82.666-48 147.666-107 195-177 47.333-70 71-144.667 71-224 0-92.667-31.334-178.334-94-257-62.667-78.667-148.167-140.834-256.5-186.5-108.334-45.667-226.167-68.5-353.5-68.5Z"/></svg>