<svg xmlns="http://www.w3.org/2000/svg" width="30" height="30" xmlns:v="https://vecta.io/nano"><defs><radialGradient id="A" cx="981.025" cy="1.811" fx="981.025" fy="-7.319" r="127.45" gradientTransform="matrix(0.0550781,0,0,-0.0480469,-30.476954,12.691407)" href="#K"><stop offset="0" stop-color="rgb(99.607843%,100%,100%)"/><stop offset=".4" stop-color="rgb(99.607843%,100%,100%)"/><stop offset=".51" stop-color="rgb(97.647059%,98.823529%,98.823529%)"/><stop offset=".62" stop-color="rgb(92.941177%,95.294118%,96.078432%)"/><stop offset=".7" stop-color="rgb(87.058824%,91.37255%,92.54902%)"/><stop offset=".72" stop-color="rgb(84.705883%,89.411765%,90.980393%)"/><stop offset=".76" stop-color="rgb(80.000001%,84.705883%,87.450981%)"/><stop offset=".8" stop-color="rgb(78.431374%,83.529413%,86.666667%)"/><stop offset=".83" stop-color="rgb(80.000001%,83.92157%,87.058824%)"/><stop offset=".85" stop-color="rgb(84.705883%,85.882354%,88.627452%)"/><stop offset=".88" stop-color="rgb(92.941177%,89.019608%,91.37255%)"/><stop offset=".9" stop-color="rgb(100%,92.156863%,93.725491%)"/></radialGradient><radialGradient id="B" cx="672.259" cy="1.811" fx="672.259" fy="-7.319" r="127.45" gradientTransform="matrix(0.0550781,0,0,-0.0480469,-30.476954,12.691407)" href="#K"><stop offset="0" stop-color="rgb(99.607843%,100%,100%)"/><stop offset=".4" stop-color="rgb(99.607843%,100%,100%)"/><stop offset=".51" stop-color="rgb(97.647059%,98.823529%,98.823529%)"/><stop offset=".62" stop-color="rgb(92.941177%,95.294118%,96.078432%)"/><stop offset=".7" stop-color="rgb(87.058824%,91.37255%,92.54902%)"/><stop offset=".72" stop-color="rgb(84.705883%,89.411765%,90.980393%)"/><stop offset=".76" stop-color="rgb(80.000001%,84.705883%,87.450981%)"/><stop offset=".8" stop-color="rgb(78.431374%,83.529413%,86.666667%)"/><stop offset=".83" stop-color="rgb(80.000001%,83.92157%,87.058824%)"/><stop offset=".85" stop-color="rgb(84.705883%,85.882354%,88.627452%)"/><stop offset=".88" stop-color="rgb(92.941177%,89.019608%,91.37255%)"/><stop offset=".9" stop-color="rgb(100%,92.156863%,93.725491%)"/></radialGradient><radialGradient id="C" cx="830.675" cy="-224.684" fx="830.675" fy="-224.684" r="384.44" gradientTransform="matrix(0.0550781,0,0,-0.0386719,-30.476954,2.933203)" href="#K"><stop offset="0" stop-color="rgb(99.607843%,100%,100%)"/><stop offset=".4" stop-color="rgb(99.607843%,100%,100%)"/><stop offset=".51" stop-color="rgb(97.647059%,98.823529%,98.823529%)"/><stop offset=".62" stop-color="rgb(92.941177%,95.294118%,96.078432%)"/><stop offset=".7" stop-color="rgb(87.058824%,91.37255%,92.54902%)"/><stop offset=".72" stop-color="rgb(84.705883%,89.411765%,90.980393%)"/><stop offset=".76" stop-color="rgb(80.000001%,84.705883%,87.450981%)"/><stop offset=".8" stop-color="rgb(78.431374%,83.529413%,86.666667%)"/><stop offset=".83" stop-color="rgb(80.000001%,83.92157%,87.058824%)"/><stop offset=".85" stop-color="rgb(84.705883%,85.882354%,88.627452%)"/><stop offset=".88" stop-color="rgb(92.941177%,89.019608%,91.37255%)"/><stop offset=".9" stop-color="rgb(100%,92.156863%,93.725491%)"/></radialGradient><radialGradient id="D" cx="-2957.255" cy="173.422" fx="-2957.255" fy="173.422" r="32.12" gradientTransform="matrix(-0.0550781,0,0,0.0808594,-143.511329,3.669141)" href="#K"><stop offset="0" stop-color="rgb(100%,40.000001%,0%)"/><stop offset=".5" stop-color="rgb(100%,27.058825%,0%)"/><stop offset=".7" stop-color="rgb(98.823529%,26.274511%,0.392157%)"/><stop offset=".82" stop-color="rgb(95.686275%,24.705882%,2.745098%)"/><stop offset=".92" stop-color="rgb(89.803922%,21.960784%,7.058824%)"/><stop offset="1" stop-color="rgb(83.137256%,18.82353%,12.156863%)"/></radialGradient><radialGradient id="E" cx="745.235" cy="173.422" fx="745.235" fy="173.422" r="32.12" gradientTransform="matrix(0.0550781,0,0,0.0808594,-30.476954,3.669141)" href="#K"><stop offset="0" stop-color="rgb(100%,40.000001%,0%)"/><stop offset=".5" stop-color="rgb(100%,27.058825%,0%)"/><stop offset=".7" stop-color="rgb(98.823529%,26.274511%,0.392157%)"/><stop offset=".82" stop-color="rgb(95.686275%,24.705882%,2.745098%)"/><stop offset=".92" stop-color="rgb(89.803922%,21.960784%,7.058824%)"/><stop offset="1" stop-color="rgb(83.137256%,18.82353%,12.156863%)"/></radialGradient><radialGradient id="F" cx="826.465" cy="-508.476" fx="826.465" fy="-508.476" r="113.26" gradientTransform="matrix(0.0550781,0,0,-0.0363281,-30.476954,4.36875)" href="#K"><stop offset="0" stop-color="rgb(9.019608%,18.039216%,20.784314%)"/><stop offset=".29" stop-color="rgb(5.490196%,10.980392%,12.941177%)"/><stop offset=".73" stop-color="rgb(1.176471%,2.745098%,3.137255%)"/><stop offset="1" stop-color="rgb(0%,0%,0%)"/></radialGradient><radialGradient id="G" cx="926.345" cy="277.902" fx="926.345" fy="277.902" r="99.42" gradientTransform="matrix(0.0550781,0,0,-0.0550781,-30.476954,19.303125)" href="#K"><stop offset="0" stop-color="rgb(99.607843%,100%,100%)"/><stop offset=".4" stop-color="rgb(99.607843%,100%,100%)"/><stop offset=".51" stop-color="rgb(97.647059%,98.823529%,98.823529%)"/><stop offset=".62" stop-color="rgb(92.941177%,95.294118%,96.078432%)"/><stop offset=".7" stop-color="rgb(87.058824%,91.37255%,92.54902%)"/><stop offset=".72" stop-color="rgb(84.705883%,89.411765%,90.980393%)"/><stop offset=".76" stop-color="rgb(80.000001%,84.705883%,87.450981%)"/><stop offset=".8" stop-color="rgb(78.431374%,83.529413%,86.666667%)"/><stop offset=".83" stop-color="rgb(80.000001%,83.92157%,87.058824%)"/><stop offset=".85" stop-color="rgb(84.705883%,85.882354%,88.627452%)"/><stop offset=".88" stop-color="rgb(92.941177%,89.019608%,91.37255%)"/><stop offset=".9" stop-color="rgb(100%,92.156863%,93.725491%)"/></radialGradient><radialGradient id="H" cx="884.915" cy="177.562" fx="884.915" fy="177.562" r="81.49" gradientTransform="matrix(0.0550781,0,0,-0.0550781,-30.476954,19.746094)" href="#K"><stop offset=".48" stop-color="rgb(47.843137%,57.254905%,60.000002%)"/><stop offset=".67" stop-color="rgb(9.019608%,18.039216%,20.784314%)"/><stop offset=".75" stop-color="rgb(0%,0%,0%)"/><stop offset=".82" stop-color="rgb(9.019608%,18.039216%,20.784314%)"/></radialGradient><path id="I" d="M11.402 17.473c0 .457-.492.668-1.09.668s-1.09-.211-1.09-.668.492-.832 1.09-.832 1.09.363 1.09.832zm0 0"/><path id="J" d="M11.449 15.797c0 .234-.172.422-.387.422s-.387-.187-.387-.422.172-.422.387-.422.387.188.387.422zm0 0"/><linearGradient id="K" gradientUnits="userSpaceOnUse"/></defs><path d="M15 0C6.715 0 0 6.715 0 15a14.91 14.91 0 0 0 4.395 10.605l-2.859 2.859C.973 29.027 1.371 30 2.168 30H15c8.285 0 15-6.715 15-15S23.285 0 15 0zm0 0" fill="rgb(100%,27.058825%,0%)"/><path d="M27.012 14.496c0 1.934-1.57 3.504-3.504 3.504s-3.504-1.57-3.504-3.504 1.57-3.504 3.504-3.504 3.504 1.57 3.504 3.504zm0 0" fill="url(#A)"/><path d="M9.996 14.496C9.996 16.43 8.426 18 6.492 18s-3.504-1.57-3.504-3.504 1.57-3.504 3.504-3.504 3.504 1.57 3.504 3.504zm0 0" fill="url(#B)"/><path d="M25.008 17.496c0 4.141-4.477 7.5-9.996 7.5s-9.996-3.359-9.996-7.5 4.477-7.5 9.996-7.5 9.996 3.359 9.996 7.5zm0 0" fill="url(#C)"/><path d="M12.047 16.77c-.059 1.266-.902 1.734-1.887 1.734s-1.734-.656-1.676-1.922.902-2.109 1.887-2.109 1.734 1.031 1.676 2.297zm9.469-.188c.059 1.266-.691 1.922-1.676 1.922s-1.828-.457-1.887-1.734c-.059-1.266.691-2.297 1.676-2.297s1.828.832 1.887 2.109zm0 0" fill="rgb(51.764709%,12.941177%,13.725491%)"/><path d="M17.965 16.887c.059 1.184.844 1.617 1.758 1.617s1.617-.645 1.57-1.84c-.059-1.184-.844-1.969-1.758-1.969s-1.629.996-1.57 2.191zm0 0" fill="url(#D)"/><path d="M12.047 16.887c-.059 1.184-.844 1.617-1.758 1.617s-1.617-.645-1.559-1.84c.059-1.184.844-1.969 1.758-1.969s1.617.996 1.559 2.191zm0 0" fill="url(#E)"/><path d="M15.012 19.348l-3.527.164c-.187.023-.305.211-.234.375.609 1.441 2.063 2.461 3.762 2.461s3.141-1.008 3.762-2.461a.27.27 0 0 0-.234-.375l-3.527-.164zm0 0" fill="rgb(73.333335%,81.176472%,85.490197%)"/><path d="M15.012 19.629l-3.516.176c-.187.023-.305.211-.234.387.609 1.465 2.063 2.496 3.75 2.496s3.141-1.031 3.75-2.496c.07-.176-.047-.363-.234-.387a33.45 33.45 0 0 0-3.516-.176zm0 0" fill="rgb(100%,100%,100%)"/><path d="M15.012 19.477l-3.457.164c-.187.023-.305.211-.234.375.609 1.441 2.027 2.461 3.691 2.461s3.082-1.008 3.691-2.461a.27.27 0 0 0-.234-.375l-3.457-.164zm0 0" fill="url(#F)"/><path d="M22.969 6.504c0 1.371-1.113 2.484-2.484 2.484S18 7.875 18 6.504s1.113-2.484 2.484-2.484 2.484 1.113 2.484 2.484zm0 0" fill="url(#G)"/><path d="M14.977 10.313c-.293 0-.539-.129-.539-.316a4.03 4.03 0 0 1 4.031-4.031c.293 0 .539.246.539.539s-.246.539-.539.539c-1.629 0-2.953 1.324-2.953 2.953 0 .199-.246.316-.539.316zm0 0" fill="url(#H)"/><g fill="rgb(100%,38.039216%,0.392157%)"><use href="#I"/><use href="#I" x="9.399"/></g><g fill="rgb(100%,76.862746%,61.176473%)"><use href="#J"/><use href="#J" x="9.246"/></g></svg>