<svg xmlns="http://www.w3.org/2000/svg" width="30" height="30" xmlns:v="https://vecta.io/nano"><path d="M13.094.09C.656 1.711-4.465 17.031 4.52 25.754c8.469 8.223 22.691 3.934 25.18-7.594C31.875 8.086 23.305-1.242 13.094.09m5.09 6.758c.191 2.055 2.074 3.875 4.004 3.875h.313v2.77l-.516-.039a7.13 7.13 0 0 1-3.375-1.172c-.223-.148-.41-.27-.422-.27s-.023 1.508-.023 3.355c0 4.094-.043 4.398-.742 5.562-2.168 3.613-7.504 3.395-9.363-.379-1.73-3.516.926-7.633 4.863-7.531l.641.016.02 1.387.016 1.387-.223-.051c-1.707-.398-3.297 1.109-3.051 2.891.324 2.375 3.613 2.965 4.762.855.332-.609.324-.395.324-6.98V6.445h2.738l.035.402" fill-rule="evenodd" fill="rgb(0%,0%,0%)"/></svg>