<svg xmlns="http://www.w3.org/2000/svg" width="30" height="30" xmlns:v="https://vecta.io/nano"><path d="M30 15c0 8.285-6.715 15-15 15S0 23.285 0 15 6.715 0 15 0s15 6.715 15 15zm0 0" fill="rgb(79.215688%,21.568628%,21.568628%)"/><path d="M22 11.563c0-.062 0-.125-.062-.187v-.062a1.35 1.35 0 0 0-1.312-.937h.125S18.313 10 15 10c-3.25 0-5.75.375-5.75.375h.125a1.35 1.35 0 0 0-1.312.938v.063c0 .063 0 .125-.062.188-.062.625-.25 1.938-.25 3.438s.188 2.813.25 3.438c0 .063 0 .125.063.188v.063a1.35 1.35 0 0 0 1.313.938H9.25S11.688 20 15 20c3.25 0 5.75-.375 5.75-.375h-.125a1.35 1.35 0 0 0 1.313-.937v-.062c0-.062 0-.125.063-.187.063-.625.25-1.937.25-3.437s-.125-2.812-.25-3.437zm-4.875 3.75l-2.937 2.125c-.062.063-.125.063-.187.063s-.125 0-.187-.062c-.125-.062-.187-.187-.187-.312v-4.25c0-.125.063-.25.188-.312s.25-.062.375 0l2.938 2.125a.48.48 0 0 1 .125.313c.063.125 0 .25-.125.313zm0 0" fill="rgb(100%,100%,100%)"/></svg>